<svg xmlns="http://www.w3.org/2000/svg" version="1.1" xmlns:xlink="http://www.w3.org/1999/xlink" xmlns:svgjs="http://svgjs.com/svgjs" width="1000" height="1000" overflow="visible"><g class="signage-logo" opacity="1"><defs id="SvgjsDefs1002"></defs><g id="SvgjsG1008" transform="scale(1.1967059353910519)" opacity="1"><g id="SvgjsG1009" class="pxJ1TwO03" transform="translate(-6.849301962694746, 0.000002451742737719087) scale(1.0599353258910635)" light-content="false" non-strokable="false" fill="#a155c7"><path d="M28.757 57.483l1.517-.875 13.176-7.634.026.014 24.85-14.341-.006-12.287L7.493 57.449 82.193 100l10.282-5.93-19.037-10.932z"></path><path d="M70.426 35.858l.013 28.49 10.554 6.011L80.96 0 6.462 42.973l.006 12.642 63.95-36.887z"></path><path d="M83.093 73.972l-12.652-7.208-.001.007-2.273-1.303-24.684-14.062-10.521 6.073L93.538 92.26l-.041-86.253L83.059.014z"></path></g><g id="SvgjsG1010" class="text" transform="translate(304.9247474700825, 85.01378766950941) scale(1)" stroke="#000000" stroke-width="3.1px" light-content="false" fill="#2a2a2a"><path d="M-142.49 -53.31L-124.33 -53.31L-124.33 -64.04L-172.77 -64.04L-172.77 -53.31L-154.6 -53.31L-154.6 0L-142.49 0Z M-102.12 1.1C-98.7 1.1 -95.61 0.52 -92.85 -0.64C-90.1 -1.8 -87.76 -3.49 -85.84 -5.69C-83.91 -7.89 -82.43 -10.54 -81.39 -13.63C-80.35 -16.71 -79.83 -20.19 -79.83 -24.04C-79.83 -27.89 -80.35 -31.35 -81.39 -34.41C-82.43 -37.47 -83.91 -40.08 -85.84 -42.25C-87.76 -44.42 -90.1 -46.09 -92.85 -47.25C-95.61 -48.42 -98.7 -49 -102.12 -49C-105.55 -49 -108.62 -48.42 -111.34 -47.25C-114.06 -46.09 -116.39 -44.42 -118.32 -42.25C-120.24 -40.08 -121.73 -37.47 -122.77 -34.41C-123.81 -31.35 -124.33 -27.89 -124.33 -24.04C-124.33 -20.19 -123.81 -16.71 -122.77 -13.63C-121.73 -10.54 -120.24 -7.89 -118.32 -5.69C-116.39 -3.49 -114.06 -1.8 -111.34 -0.64C-108.62 0.52 -105.55 1.1 -102.12 1.1ZM-102.12 -8.35C-105.18 -8.35 -107.6 -9.3 -109.37 -11.19C-111.14 -13.09 -112.03 -15.87 -112.03 -19.54L-112.03 -28.44C-112.03 -32.05 -111.14 -34.81 -109.37 -36.7C-107.6 -38.6 -105.18 -39.55 -102.12 -39.55C-99 -39.55 -96.56 -38.6 -94.78 -36.7C-93.01 -34.81 -92.12 -32.05 -92.12 -28.44L-92.12 -19.54C-92.12 -15.87 -93.01 -13.09 -94.78 -11.19C-96.56 -9.3 -99 -8.35 -102.12 -8.35Z M-69.46 0L-57.71 0L-57.71 -31.65C-57.71 -32.94 -57.45 -34.06 -56.93 -35C-56.41 -35.95 -55.74 -36.75 -54.91 -37.39C-54.09 -38.03 -53.14 -38.52 -52.07 -38.86C-51 -39.19 -49.91 -39.36 -48.81 -39.36C-43.67 -39.36 -41.11 -35.94 -41.11 -29.09L-41.11 0L-29.36 0L-29.36 -31.65C-29.36 -32.94 -29.12 -34.06 -28.63 -35C-28.14 -35.95 -27.48 -36.75 -26.65 -37.39C-25.83 -38.03 -24.88 -38.52 -23.81 -38.86C-22.74 -39.19 -21.62 -39.36 -20.46 -39.36C-15.32 -39.36 -12.75 -35.94 -12.75 -29.09L-12.75 0L-1.01 0L-1.01 -30.28C-1.01 -36.27 -2.28 -40.89 -4.82 -44.13C-7.36 -47.38 -10.98 -49 -15.69 -49C-19.54 -49 -22.74 -48.06 -25.28 -46.2C-27.82 -44.33 -29.51 -42.05 -30.37 -39.36L-30.55 -39.36C-31.72 -42.6 -33.49 -45.02 -35.88 -46.61C-38.26 -48.2 -41.11 -49 -44.41 -49C-48.02 -49 -50.83 -48.11 -52.85 -46.34C-54.87 -44.56 -56.34 -42.42 -57.25 -39.91L-57.71 -39.91L-57.71 -47.9L-69.46 -47.9Z M31.01 1.1C34.44 1.1 37.53 0.52 40.28 -0.64C43.03 -1.8 45.37 -3.49 47.3 -5.69C49.23 -7.89 50.71 -10.54 51.75 -13.63C52.79 -16.71 53.31 -20.19 53.31 -24.04C53.31 -27.89 52.79 -31.35 51.75 -34.41C50.71 -37.47 49.23 -40.08 47.3 -42.25C45.37 -44.42 43.03 -46.09 40.28 -47.25C37.53 -48.42 34.44 -49 31.01 -49C27.59 -49 24.51 -48.42 21.79 -47.25C19.07 -46.09 16.74 -44.42 14.82 -42.25C12.89 -40.08 11.41 -37.47 10.37 -34.41C9.33 -31.35 8.81 -27.89 8.81 -24.04C8.81 -20.19 9.33 -16.71 10.37 -13.63C11.41 -10.54 12.89 -7.89 14.82 -5.69C16.74 -3.49 19.07 -1.8 21.79 -0.64C24.51 0.52 27.59 1.1 31.01 1.1ZM31.01 -8.35C27.95 -8.35 25.54 -9.3 23.76 -11.19C21.99 -13.09 21.1 -15.87 21.1 -19.54L21.1 -28.44C21.1 -32.05 21.99 -34.81 23.76 -36.7C25.54 -38.6 27.95 -39.55 31.01 -39.55C34.13 -39.55 36.58 -38.6 38.35 -36.7C40.13 -34.81 41.01 -32.05 41.01 -28.44L41.01 -19.54C41.01 -15.87 40.13 -13.09 38.35 -11.19C36.58 -9.3 34.13 -8.35 31.01 -8.35Z M80.93 -38.17L74.6 -38.17L74.6 -28.08L80.93 -28.08C84.78 -28.08 87.73 -27.31 89.78 -25.78C91.83 -24.25 92.85 -22.02 92.85 -19.08L92.85 -18.44C92.85 -15.45 91.91 -13.09 90.01 -11.38C88.11 -9.66 85.39 -8.81 81.84 -8.81C80.07 -8.81 78.48 -9.02 77.07 -9.45C75.67 -9.88 74.41 -10.49 73.31 -11.29C72.21 -12.08 71.23 -13.01 70.37 -14.08C69.52 -15.15 68.72 -16.33 67.99 -17.62L59.09 -10.83C60.07 -9.24 61.23 -7.72 62.58 -6.29C63.92 -4.85 65.5 -3.58 67.3 -2.48C69.11 -1.38 71.2 -0.5 73.59 0.14C75.97 0.78 78.72 1.1 81.84 1.1C85.39 1.1 88.6 0.66 91.48 -0.23C94.35 -1.12 96.83 -2.39 98.91 -4.04C100.99 -5.69 102.6 -7.68 103.73 -10C104.86 -12.33 105.42 -14.89 105.42 -17.71C105.42 -19.97 105.07 -21.99 104.37 -23.76C103.67 -25.54 102.72 -27.08 101.53 -28.4C100.33 -29.71 98.91 -30.77 97.26 -31.56C95.61 -32.36 93.86 -32.94 92.03 -33.31L92.03 -33.86C93.68 -34.22 95.26 -34.79 96.75 -35.55C98.25 -36.32 99.57 -37.31 100.7 -38.54C101.83 -39.76 102.72 -41.2 103.36 -42.85C104 -44.5 104.32 -46.37 104.32 -48.45C104.32 -51.01 103.8 -53.32 102.76 -55.37C101.72 -57.42 100.24 -59.18 98.31 -60.65C96.39 -62.12 94.09 -63.23 91.43 -64C88.77 -64.76 85.82 -65.14 82.58 -65.14C79.89 -65.14 77.47 -64.87 75.33 -64.32C73.19 -63.77 71.26 -63.02 69.55 -62.07C67.84 -61.12 66.32 -59.99 65.01 -58.68C63.69 -57.36 62.48 -55.97 61.38 -54.5L69.09 -47.53C70.68 -49.98 72.56 -51.87 74.73 -53.22C76.9 -54.56 79.4 -55.24 82.21 -55.24C85.15 -55.24 87.46 -54.49 89.14 -52.99C90.82 -51.49 91.66 -49.42 91.66 -46.79L91.66 -46.15C91.66 -43.83 90.79 -41.92 89.05 -40.42C87.3 -38.92 84.6 -38.17 80.93 -38.17Z M119.46 -64.04L119.46 0L142.77 0C146.93 0 150.7 -0.67 154.1 -2.02C157.49 -3.36 160.4 -5.37 162.82 -8.03C165.23 -10.69 167.1 -14.02 168.41 -18.03C169.73 -22.04 170.39 -26.7 170.39 -32.02C170.39 -37.34 169.73 -42.01 168.41 -46.01C167.1 -50.02 165.23 -53.35 162.82 -56.02C160.4 -58.68 157.49 -60.68 154.1 -62.03C150.7 -63.37 146.93 -64.04 142.77 -64.04ZM142.77 -10.74L131.57 -10.74L131.57 -53.31L142.77 -53.31C147.29 -53.31 150.89 -51.98 153.55 -49.32C156.21 -46.66 157.54 -42.57 157.54 -37.07L157.54 -26.98C157.54 -21.47 156.21 -17.39 153.55 -14.73C150.89 -12.07 147.29 -10.74 142.77 -10.74Z"></path></g></g></g></svg>
